PathFileType	4	(X/Y/Z)	C:/Users/beibeiliu/ov580/test_trc/User2\sequence.1_training_dense_right.trc
DataRate	CameraRate	NumFrames	NumMarkers	Units	OrigDataRate	OrigDataStartFrame	OrigNumFrames
120	120	10	19	mm	120	43	338
Frame#	Time	ThumbCMC			ThumbMCP			ThumbIP			ThumbTip			IndexMCP			IndexPIP			IndexTip			MiddleMCP			MiddlePIP			MiddleTip			RingMCP			RingPIP			RingTip			PinkyMCP			PinkyPIP			PinkyTip			BackHand1			BackHand2			BackHand3	
		X0	Y0	Z0	X1	Y1	Z1	X2	Y2	Z2	X3	Y3	Z3	X4	Y4	Z4	X5	Y5	Z5	X6	Y6	Z6	X7	Y7	Z7	X8	Y8	Z8	X9	Y9	Z9	X10	Y10	Z10	X11	Y11	Z11	X12	Y12	Z12	X13	Y13	Z13	X14	Y14	Z14	X15	Y15	Z15	X16	Y16	Z16	X17	Y17	Z17	X18	Y18	Z18	
42	0.35	115.977	14.0657	120.109	89.9006	5.58218	107.738	63.5335	-2.23251	82.5658	45.6734	-11.1184	65.2382	119.136	18.5368	33.1332	111.856	13.4292	10.5991	104.015	5.68636	-15.4781	149.367	15.5216	21.5307	147.547	8.02902	-3.98196	144.046	-1.29651	-35.9174	170.917	7.63789	29.2715	173.583	3.16946	2.7017	171.308	-1.05827	-22.9471	196.921	-5.98865	48.0685	203.502	-10.9472	24.5437	210.282	-12.3036	-0.46034	177.967	21.1548	87.3083	183.973	26.6152	114.005	144.732	31.7529	100.217	
43	0.358333	111.279	17.1176	116.932	88.7529	7.89811	101.842	63.4579	-0.239459	80.0157	47.6417	-9.48369	63.5989	118.642	20.8383	32.7938	105.113	16.102	2.59353	99.6854	8.50882	-19.854	145.446	17.4646	22.0694	140.102	10.5584	-10.1219	139.072	1.49165	-38.636	169.88	10.8436	25.8595	170.1	5.04712	-3.92231	172.897	-0.535703	-28.7933	195.044	-2.64061	41.3943	198.429	-8.24703	17.4815	207.062	-10.6875	-5.1466	174.899	23.3233	82.7651	181.018	30.6515	109.428	146.435	33.6585	98.8955	
44	0.366667	111.448	15.9554	110.076	86.4332	8.73497	99.168	61.1437	0.0396524	77.2515	43.4846	-9.1662	60.0972	111.177	22.5591	25.4689	101.715	16.9425	2.84257	98.8932	7.49797	-25.8074	139.596	19.0491	15.5904	138.914	10.9185	-15.2153	134.98	2.00095	-44.548	166.287	11.1416	18.0583	166.016	7.0983	-8.46428	167.78	0.925378	-33.5041	186.474	-1.22296	36.9329	196.432	-7.3838	11.795	199.566	-7.80763	-10.7202	171.987	25.9744	74.3241	178.328	30.8282	109.207	140.42	35.6075	95.9965	
45	0.375	107.31	15.6364	107.771	79.9247	8.72115	93.6655	53.5785	1.08545	72.9684	35.8185	-8.62169	56.5808	109.838	21.7362	25.82	95.9887	15.5466	-0.554902	90.1719	6.32414	-29.7843	133.549	19.6547	12.7997	130.223	12.0442	-15.5821	130.328	1.59673	-48.151	159.415	12.2149	18.6836	160.762	7.07798	-11.7232	161.098	2.89893	-38.2824	185.906	0.0646272	31.3901	188.273	-5.80272	10.3218	200.286	-6.08433	-13.5709	164.898	25.3463	73.2512	176.638	33.0995	104.959	132.799	36.1404	89.6342	
46	0.383333	100.345	15.3765	104.419	77.4286	7.57893	90.2362	48.6012	-1.23824	67.2836	35.7126	-11.074	55.198	101.1	19.9691	21.4326	94.3919	14.0132	-6.10815	87.6486	4.28545	-35.9217	130.654	18.0963	8.55499	125.79	10.3499	-22.6708	125.51	0.253966	-52.4586	154.984	12.0374	13.4366	155.922	6.47642	-16.2078	155.997	1.83917	-43.6146	183.635	0.317821	25.9877	189.69	-6.39434	0.845066	191.492	-6.40195	-19.9889	165.015	23.1118	64.1666	171.406	32.7036	95.2924	132.767	34.8432	84.6968	
47	0.391667	101.734	14.3107	101.19	71.4027	7.20361	86.3143	45.856	-1.51355	65.9743	33.5417	-12.2758	46.9968	97.4216	18.5842	17.6526	92.2718	12.6661	-12.5883	81.3417	4.50088	-36.4455	129.697	16.5796	1.3174	123.376	8.65445	-30.7494	119.61	-0.585193	-60.2691	153.574	10.692	8.48881	156.409	4.98547	-22.3002	153.468	0.550348	-47.1508	178.314	-1.22099	21.8574	181.453	-6.34818	-2.38012	188.077	-5.86889	-24.0662	162.373	24.7596	62.4139	165.831	33.0412	94.6793	128.794	34.5742	83.3158	
48	0.4	96.3334	14.4379	96.1493	69.2297	7.02262	82.8489	44.1007	-2.08226	58.1328	30.4254	-12.2406	45.3533	96.525	18.2444	6.44402	86.0958	13.4561	-13.4328	83.0112	4.95725	-40.7295	127.678	16.1824	-3.71674	120.859	9.09183	-32.8053	118.398	-0.478483	-63.9043	149.631	11.0893	1.93738	152.826	5.47459	-22.488	153.89	-0.551584	-55.943	176.015	-2.09256	19.4191	184.994	-7.2872	-4.79172	186.548	-6.95635	-27.8087	159.689	23.4703	59.639	165.168	32.6489	86.9578	125.914	34.6781	77.1244	
49	0.408333	96.702	15.2612	88.8491	67.959	8.40634	72.2188	43.4041	-0.704187	55.6628	28.4012	-10.5625	37.2611	97.4023	18.9076	5.22229	86.9081	12.8881	-24.2522	80.7095	5.03185	-50.152	123.381	18.5416	-3.95581	123.87	9.37349	-40.3583	119.691	0.701184	-66.6173	152.586	10.3744	-3.57113	149.981	6.58745	-27.6085	152.315	1.32841	-59.1109	171.97	-0.732446	15.2431	183.088	-7.71225	-9.19806	186.111	-6.00225	-30.6114	157.778	24.4404	52.5375	160.846	31.5657	82.9663	125.56	36.6357	72.3242	
50	0.416667	91.3942	17.3346	84.4827	64.8724	9.68594	71.9018	42.8129	0.985809	51.5609	25.5701	-7.93679	32.3901	94.0923	22.3294	0.0914313	85.2713	16.5399	-26.069	80.3972	8.09779	-51.1256	122.828	19.5429	-12.9364	119.86	11.8005	-39.6392	123.431	1.71664	-70.8833	152.599	11.6233	-6.47928	151.876	6.88558	-30.5047	153.899	1.48872	-62.0361	172.02	-0.666712	10.1785	177.536	-4.88466	-14.3443	189.296	-7.86725	-34.5369	153.518	25.5494	46.7806	159.98	34.0689	78.2264	125.783	36.1174	69.3514	
51	0.425	90.3423	17.6194	86.4611	66.2071	10.575	66.5571	43.9221	0.900355	47.9128	26.0852	-7.2128	29.6104	96.5988	22.3962	0.313557	88.0074	15.8641	-25.5678	77.7396	8.55315	-53.1812	123.854	19.7039	-10.0919	120.09	12.1257	-40.7327	117.112	3.21625	-74.2837	152.645	11.3916	-6.73328	148.713	7.52366	-36.3453	152.492	2.02671	-63.9531	171.169	-0.381268	6.99643	179.95	-6.98014	-12.9167	187.019	-5.78207	-40.1988	153.632	25.2722	45.2536	163.118	32.2237	77.8104	122.893	37.8905	66.7925	
